<svg xmlns="http://www.w3.org/2000/svg" viewBox="0 0 60.96 73.55"><defs><style>.cls-1{fill:#192a56;}.cls-2{fill:#e1b12c;}</style></defs><title>Asset 5</title><g id="Layer_2" data-name="Layer 2"><g id="Layer_1-2" data-name="Layer 1"><path class="cls-1" d="M45.2,43.27q-4.68-5-16.6-8.35l-3,4.79,2.33,1.12,2-2.76a41.6,41.6,0,0,1,11,5A12.16,12.16,0,0,1,46,50.45a13.43,13.43,0,0,1-.73,7.47,17.67,17.67,0,0,1-8.59,9.45A29.44,29.44,0,0,1,22.3,70.91q-9.92,0-15.28-5T2.87,52.5H.23Q-1.09,62,5.07,67.78t17.28,5.77a33.63,33.63,0,0,0,12.31-2.27,24.63,24.63,0,0,0,9.49-6.35,17.9,17.9,0,0,0,4.52-9.5A13.5,13.5,0,0,0,45.2,43.27Z"/><path class="cls-2" d="M59.18,10A16.44,16.44,0,0,0,52,2.55,22.34,22.34,0,0,0,40.78,0a33.5,33.5,0,0,0-12,2.35,23.84,23.84,0,0,0-9.15,6.23,17.19,17.19,0,0,0-4.29,9.23,13.26,13.26,0,0,0,1,8A15.33,15.33,0,0,0,22.36,32a43.42,43.42,0,0,0,9,3.86l-1.42,2.18L33,39.13l1.44-2.29,1.36-2.32a44.69,44.69,0,0,1-12.17-4.86,11.53,11.53,0,0,1-5.47-7.11,12.21,12.21,0,0,1,.29-6.4q1.71-6,8.09-9.68A29.07,29.07,0,0,1,40.87,2.64q8.55-.15,13.47,5t3.83,13.09l2.63,0A19,19,0,0,0,59.18,10Z"/></g></g></svg>